<?xml version="1.0" encoding="utf-8"?>
<!-- Generator: Adobe Illustrator 19.1.0, SVG Export Plug-In . SVG Version: 6.00 Build 0)  -->
<svg version="1.1" id="Layer_1" xmlns="http://www.w3.org/2000/svg" xmlns:xlink="http://www.w3.org/1999/xlink" x="0px" y="0px"
	 viewBox="0 0 144 144" style="enable-background:new 0 0 144 144;" xml:space="preserve">
<style type="text/css">
	.st0{fill:#3155A4;}
</style>
<g>
	<path class="st0" d="M93.3-102.3v-3h4.8v3H93.3z"/>
	<path class="st0" d="M88.5-97.4v-3h9.6v3H88.5z"/>
	<path class="st0" d="M79-92.4v-3h19.1v3H79z"/>
</g>
<g>
	<path d="M25.3-92.4H18v-3.1h1.1v-6.7H18v-3.1h7.8c1.5,0,2.7,0.1,3.6,0.3c0.8,0.2,1.5,0.6,2,1.1c0.5,0.6,0.7,1.2,0.7,2
		c0,0.7-0.2,1.3-0.7,1.7c-0.5,0.4-1,0.8-1.7,0.9c0.9,0.3,1.6,0.7,2.1,1.3c0.5,0.6,0.7,1.2,0.7,1.9c0,0.9-0.3,1.6-0.8,2.2
		c-0.6,0.6-1.3,1-2.3,1.2C28.5-92.5,27.1-92.4,25.3-92.4z M24.1-102.5v2.3h1.1c0.7,0,1.2-0.1,1.5-0.3c0.2-0.2,0.3-0.5,0.3-0.8
		c0-0.3-0.1-0.6-0.3-0.8c-0.2-0.2-0.8-0.4-1.7-0.4H24.1z M24.1-97.8v2.5h1.1c0.7,0,1.2-0.1,1.5-0.3c0.3-0.2,0.5-0.5,0.5-1
		c0-0.4-0.1-0.8-0.4-1c-0.3-0.2-0.8-0.3-1.6-0.3H24.1z"/>
	<path d="M46.4-92.4H34.2v-3.1h1v-6.7h-1v-3.1h12.3v4.1H43v-1h-2.9v2h2.5v2.6h-2.5v2.1H43v-1h3.4V-92.4z"/>
	<path d="M58.2-92.4H51v-3.1h1.1v-6.7h-1.5v2.3h-2.4v-5.4h12.7v5.4h-2.4v-2.3H57v6.7h1.1V-92.4z"/>
	<path d="M69.2-92.4h-6.8v-3.1h1v-6.7h-1v-3.1h6.8v3.1h-0.8v2h3v-2h-0.8v-3.1h6.8v3.1h-1v6.7h1v3.1h-6.8v-3.1h0.8v-2.1h-3v2.1h0.8
		V-92.4z"/>
	<path d="M112-92.4H99.8v-3.1h1v-6.7h-1v-3.1H112v4.1h-3.4v-1h-2.9v2h2.5v2.6h-2.5v2.1h2.9v-1h3.4V-92.4z"/>
	<path d="M126-92.4h-12.2v-3.1h1.2v-6.7h-1.2v-3.1h7.3v3.1h-1.2v6.7h3v-2.1h3.1V-92.4z"/>
</g>
<g>
	<path d="M21.1-85.8h-2.7v-1.4h6.8v1.4h-2.7v7h-1.5V-85.8z"/>
	<path d="M32.9-87.1h6.2v1.3h-4.8v2.2h4.2v1.3h-4.2v2.2h4.8v1.3h-6.3V-87.1z"/>
	<path d="M46.9-87.1h1.6l2.6,4l2.6-4h1.6v8.4h-1.5v-6l-2.7,4h0l-2.6-3.9v6h-1.5V-87.1z"/>
	<path d="M63.3-87.1h3.3c0.5,0,0.9,0.1,1.3,0.2c0.4,0.1,0.7,0.3,1,0.6s0.5,0.5,0.6,0.9c0.1,0.3,0.2,0.7,0.2,1.2v0
		c0,0.5-0.1,0.9-0.3,1.2c-0.2,0.4-0.4,0.7-0.7,0.9c-0.3,0.2-0.7,0.4-1.1,0.5c-0.4,0.1-0.8,0.2-1.3,0.2h-1.7v2.7h-1.5V-87.1z
		 M66.5-82.8c0.6,0,1-0.1,1.3-0.4s0.5-0.6,0.5-1.1v0c0-0.5-0.2-0.9-0.5-1.1s-0.8-0.4-1.3-0.4h-1.7v3H66.5z"/>
	<path d="M77.3-87.1h1.5v7.1h4.4v1.3h-5.9V-87.1z"/>
	<path d="M90.8-87.1H97v1.3h-4.8v2.2h4.2v1.3h-4.2v2.2H97v1.3h-6.3V-87.1z"/>
</g>
<g>
	<path class="st0" d="M77.9,61.7v-3h4.8v3H77.9z"/>
	<path class="st0" d="M73.1,66.6v-3h9.6v3H73.1z"/>
	<path class="st0" d="M63.5,71.6v-3h19.1v3H63.5z"/>
</g>
<g>
	<path d="M54.7,71.6h-7.3v-3.1h1.1v-6.7h-1.1v-3.1h7.8c1.5,0,2.7,0.1,3.6,0.3c0.8,0.2,1.5,0.6,2,1.1c0.5,0.6,0.7,1.2,0.7,2
		c0,0.7-0.2,1.3-0.7,1.7c-0.5,0.4-1,0.8-1.7,0.9c0.9,0.3,1.6,0.7,2.1,1.3c0.5,0.6,0.7,1.2,0.7,1.9c0,0.9-0.3,1.6-0.8,2.2
		c-0.6,0.6-1.3,1-2.3,1.2C57.9,71.5,56.5,71.6,54.7,71.6z M53.5,61.5v2.3h1.1c0.7,0,1.2-0.1,1.5-0.3c0.2-0.2,0.3-0.5,0.3-0.8
		c0-0.3-0.1-0.6-0.3-0.8c-0.2-0.2-0.8-0.4-1.7-0.4H53.5z M53.5,66.2v2.5h1.1c0.7,0,1.2-0.1,1.5-0.3c0.3-0.2,0.5-0.5,0.5-1
		c0-0.4-0.1-0.8-0.4-1c-0.3-0.2-0.8-0.3-1.6-0.3H53.5z"/>
	<path d="M96.6,71.6H84.4v-3.1h1v-6.7h-1v-3.1h12.3v4.1h-3.4v-1h-2.9v2h2.5v2.6h-2.5v2.1h2.9v-1h3.4V71.6z"/>
</g>
<g>
	<path class="st0" d="M240.8,61.7v-3h4.8v3H240.8z"/>
	<path class="st0" d="M236,66.6v-3h9.6v3H236z"/>
	<path class="st0" d="M226.4,71.6v-3h19.1v3H226.4z"/>
</g>
<g>
	<path class="st0" d="M257.3-102.3v-3h4.8v3H257.3z"/>
	<path class="st0" d="M252.5-97.4v-3h9.6v3H252.5z"/>
	<path class="st0" d="M243-92.4v-3h19.1v3H243z"/>
</g>
<g>
	<path d="M189.3-92.4H182v-3.1h1.1v-6.7H182v-3.1h7.8c1.5,0,2.7,0.1,3.6,0.3c0.8,0.2,1.5,0.6,2,1.1c0.5,0.6,0.7,1.2,0.7,2
		c0,0.7-0.2,1.3-0.7,1.7c-0.5,0.4-1,0.8-1.7,0.9c0.9,0.3,1.6,0.7,2.1,1.3c0.5,0.6,0.7,1.2,0.7,1.9c0,0.9-0.3,1.6-0.8,2.2
		c-0.6,0.6-1.3,1-2.3,1.2C192.5-92.5,191.1-92.4,189.3-92.4z M188.1-102.5v2.3h1.1c0.7,0,1.2-0.1,1.5-0.3c0.2-0.2,0.3-0.5,0.3-0.8
		c0-0.3-0.1-0.6-0.3-0.8c-0.2-0.2-0.8-0.4-1.7-0.4H188.1z M188.1-97.8v2.5h1.1c0.7,0,1.2-0.1,1.5-0.3c0.3-0.2,0.5-0.5,0.5-1
		c0-0.4-0.1-0.8-0.4-1c-0.3-0.2-0.8-0.3-1.6-0.3H188.1z"/>
	<path d="M210.4-92.4h-12.2v-3.1h1v-6.7h-1v-3.1h12.3v4.1H207v-1h-2.9v2h2.5v2.6h-2.5v2.1h2.9v-1h3.4V-92.4z"/>
	<path d="M222.2-92.4H215v-3.1h1.1v-6.7h-1.5v2.3h-2.4v-5.4h12.7v5.4h-2.4v-2.3H221v6.7h1.1V-92.4z"/>
	<path d="M233.2-92.4h-6.8v-3.1h1v-6.7h-1v-3.1h6.8v3.1h-0.8v2h3v-2h-0.8v-3.1h6.8v3.1h-1v6.7h1v3.1h-6.8v-3.1h0.8v-2.1h-3v2.1h0.8
		V-92.4z"/>
	<path d="M276-92.4h-12.2v-3.1h1v-6.7h-1v-3.1H276v4.1h-3.4v-1h-2.9v2h2.5v2.6h-2.5v2.1h2.9v-1h3.4V-92.4z"/>
	<path d="M290-92.4h-12.2v-3.1h1.2v-6.7h-1.2v-3.1h7.3v3.1h-1.2v6.7h3v-2.1h3.1V-92.4z"/>
</g>
</svg>
